<?xml version="1.0" standalone="no"?>
<!DOCTYPE svg PUBLIC "-//W3C//DTD SVG 1.1//EN" "http://www.w3.org/Graphics/SVG/1.1/DTD/svg11.dtd" >
<svg xmlns="http://www.w3.org/2000/svg">
<metadata>Generated by IcoMoon</metadata>
<defs>
<font id="iconmoon" horiz-adv-x="1024">
<font-face units-per-em="1024" ascent="896" descent="-128" />
<missing-glyph horiz-adv-x="1024" />
<glyph unicode="&#x20;" horiz-adv-x="0" d="" />
<glyph unicode="&#xe621;" glyph-name="edit" d="M270.643 100.864c1.585-0.118 3.434-0.185 5.299-0.185 18.3 0 35.085 6.487 48.181 17.287l-0.129-0.104 5.222 1.638-163.226 163.123-1.638-5.222c-12.698-15.36-18.33-34.509-16.998-53.35l-57.958-181.043 181.248 57.856zM861.491 761.344l-53.453 53.35c-29.491 29.491-77.312 29.491-106.803 0l-51.712-51.712 160.154-160.051 51.712 51.712c29.594 29.389 29.594 77.21 0.102 106.701zM754.79 547.84l-160.154 160.051-372.019-371.814 160.154-160.051 372.019 371.814zM40.448-6.042h941.773v-67.277h-941.773z" />
<glyph unicode="&#xe622;" glyph-name="head" d="M43.827-104.55c0 1.434 14.029 51.405 31.13 111.104 34.714 121.242 51.814 163.43 71.27 176.128 7.27 4.71 54.579 22.63 105.165 39.834 94.208 31.949 150.528 57.958 168.55 77.824 6.554 7.27 11.162 23.552 13.005 45.875 2.765 33.997 2.355 35.328-20.787 64-13.005 16.179-29.184 44.646-36.045 63.488-6.861 18.739-14.746 34.099-17.613 34.099-15.77 0-36.352 89.6-22.63 98.099 2.56 1.536 2.048 18.022-1.024 36.454-7.27 43.827 3.277 105.984 22.221 131.891 7.475 10.138 18.33 28.57 24.166 40.96 26.010 55.296 74.547 69.734 168.55 50.278 41.472-8.602 78.95-8.704 97.485-0.307 12.902 5.837 27.955-29.798 27.955-66.048 0-16.384 4.198-42.086 9.216-56.934 7.066-20.89 8.499-39.322 6.144-79.974-1.741-29.798-0.922-54.17 2.048-56.013 15.667-9.728-2.97-87.757-23.654-98.816-5.837-3.072-10.65-10.035-10.752-15.36-0.205-16.282-20.992-56.832-42.803-83.456-20.173-24.678-20.582-26.112-16.998-60.109 6.042-57.651 31.744-75.469 184.832-127.59 141.005-48.026 129.741-33.587 174.080-224.666 12.39-53.248 22.528-98.304 22.528-100.147s-210.637-3.277-467.968-3.277c-257.536 0.102-468.070 1.229-468.070 2.662zM43.827-104.55" />
<glyph unicode="&#xe623;" glyph-name="news" d="M962.56 841.728h-901.12c-22.63 0-40.96-18.33-40.96-40.96v-655.36c0-22.63 18.33-40.96 40.96-40.96h225.28v81.92h-143.36c-22.63 0-40.96 18.33-40.96 40.96v491.52c0 22.63 18.33 40.96 40.96 40.96h737.28c22.63 0 40.96-18.33 40.96-40.96v-491.52c0-22.63-18.33-40.96-40.96-40.96h-348.16v-81.92h430.080c22.63 0 40.96 18.33 40.96 40.96v655.36c0 22.63-18.33 40.96-40.96 40.96zM215.040 483.328c0-33.932 27.508-61.44 61.44-61.44s61.44 27.508 61.44 61.44v0c0 33.932-27.508 61.44-61.44 61.44s-61.44-27.508-61.44-61.44v0zM450.56 483.328c0-33.932 27.508-61.44 61.44-61.44s61.44 27.508 61.44 61.44v0c0 33.932-27.508 61.44-61.44 61.44s-61.44-27.508-61.44-61.44v0zM686.080 483.328c0-33.932 27.508-61.44 61.44-61.44s61.44 27.508 61.44 61.44v0c0 33.932-27.508 61.44-61.44 61.44s-61.44-27.508-61.44-61.44v0zM561.357 116.326l-188.211-188.211c-15.974-15.974-41.882-15.974-57.958 0-15.974 15.974-15.974 41.882 0 57.958l188.211 188.211c15.974 15.974 41.882 15.974 57.958 0 15.974-15.974 15.974-41.984 0-57.958z" />
<glyph unicode="&#xe624;" glyph-name="pack" d="M942.080 691.2h-860.16c-33.894 0-61.44 27.546-61.44 61.44s27.546 61.44 61.44 61.44h860.16c33.894 0 61.44-27.546 61.44-61.44s-27.546-61.44-61.44-61.44zM942.080 445.44h-573.44c-33.894 0-61.44 27.546-61.44 61.44s27.546 61.44 61.44 61.44h573.44c33.894 0 61.44-27.546 61.44-61.44s-27.546-61.44-61.44-61.44zM942.080 199.68h-573.44c-33.894 0-61.44 27.546-61.44 61.44s27.546 61.44 61.44 61.44h573.44c33.894 0 61.44-27.546 61.44-61.44s-27.546-61.44-61.44-61.44zM942.080-46.080h-860.16c-33.894 0-61.44 27.546-61.44 61.44s27.546 61.44 61.44 61.44h860.16c33.894 0 61.44-27.546 61.44-61.44s-27.546-61.44-61.44-61.44zM266.24 199.68l-245.76 184.32 245.76 184.32z" />
<glyph unicode="&#xe625;" glyph-name="operate" d="M962.56 875.52h-901.12c-22.63 0-40.96-18.33-40.96-40.96v-573.44l40.96 40.96v491.52c0 22.63 18.33 40.96 40.96 40.96h819.2c22.63 0 40.96-18.33 40.96-40.96v-819.2c0-22.63-18.33-40.96-40.96-40.96h-819.2c-22.63 0-40.96 18.33-40.96 40.96v204.8l-40.96-40.96v-204.8c0-22.63 18.33-40.96 40.96-40.96h901.12c22.63 0 40.96 18.33 40.96 40.96v901.12c0 22.63-18.33 40.96-40.96 40.96zM348.16 404.48l-286.72-286.72v61.44l286.72 286.72zM552.96 220.16l-204.8 184.32v61.44l204.8-184.32zM798.72 506.88l-245.76-286.72v61.44l245.76 286.72zM675.84 568.32h163.84v-40.96h-163.84zM798.72 568.32h40.96v-163.84h-40.96z" />
<glyph unicode="&#xe626;" glyph-name="part" d="M962.56 752.64h-901.12c-22.63 0-40.96-18.33-40.96-40.96v-737.28c0-22.63 18.33-40.96 40.96-40.96h901.12c22.63 0 40.96 18.33 40.96 40.96v737.28c0 22.63-18.33 40.96-40.96 40.96zM962.56 15.36c0-22.63-18.33-40.96-40.96-40.96h-819.2c-22.63 0-40.96 18.33-40.96 40.96v655.36c0 22.63 18.33 40.96 40.96 40.96h819.2c22.63 0 40.96-18.33 40.96-40.96v-655.36zM61.44 547.84h901.12v-40.96h-901.12zM225.28 834.56h40.96v-204.8h-40.96zM757.76 834.56h40.96v-204.8h-40.96z" />
<glyph unicode="&#xe627;" glyph-name="pass" d="M513.024 875.11v0zM865.997 452.813c-8.602 0-58.163-0.307-67.379-0.307v148.173c0 165.069-111.616 274.33-285.389 274.432-173.875-0.102-287.642-114.893-287.642-274.432v-147.046c-5.939 0-69.018-0.819-74.65-0.819-41.779 0-68.608-33.894-68.608-70.554v-418.202c0-41.472 23.040-71.987 67.482-71.987h718.336c34.714 0 74.342 29.901 74.342 83.661v397.005c-0.102 41.37-14.438 80.077-76.493 80.077zM608.051 77.312c0-51.712-42.803-93.696-95.539-93.696-52.838 0-95.539 41.984-95.539 93.696v1.434c0 34.611 19.251 64.922 47.718 81.101v172.954c0 24.678 20.378 27.136 45.568 27.136s50.074-2.355 50.074-27.136v-172.851c28.57-16.179 47.718-46.49 47.718-81.101v-1.536zM704.307 453.939h-382.362v188.416c0 90.419 105.677 139.674 185.446 139.674h17.51c79.77 0 179.507-45.773 179.507-139.674v-188.416zM704.307 453.939" />
<glyph unicode="&#xe628;" glyph-name="home" d="M593.92 875.52c-22.63 0-40.96-18.33-40.96-40.96v-368.64c0-22.63 18.33-40.96 40.96-40.96h368.64c22.63 0 40.96 18.33 40.96 40.96v409.6h-409.6zM962.56 506.88c0-22.63-18.33-40.96-40.96-40.96h-286.72c-22.63 0-40.96 18.33-40.96 40.96v286.72c0 22.63 18.33 40.96 40.96 40.96h327.68v-327.68zM1003.52 302.080c0 22.63-18.33 40.96-40.96 40.96h-368.64c-22.63 0-40.96-18.33-40.96-40.96v-368.64c0-22.63 18.33-40.96 40.96-40.96h409.6v409.6zM634.88-66.56c-22.63 0-40.96 18.33-40.96 40.96v286.72c0 22.63 18.33 40.96 40.96 40.96h286.72c22.63 0 40.96-18.33 40.96-40.96v-327.68h-327.68zM20.48 466.944c0-22.63 18.33-40.96 40.96-40.96h368.64c22.63 0 40.96 18.33 40.96 40.96v368.64c0 22.63-18.33 40.96-40.96 40.96h-409.6v-409.6zM389.12 835.584c22.63 0 40.96-18.33 40.96-40.96v-286.72c0-22.63-18.33-40.96-40.96-40.96h-286.72c-22.63 0-40.96 18.33-40.96 40.96v327.68h327.68zM421.888-107.52c22.63 0 40.96 18.33 40.96 40.96v368.64c0 22.63-18.33 40.96-40.96 40.96h-368.64c-22.63 0-40.96-18.33-40.96-40.96v-409.6h409.6zM53.248 261.12c0 22.63 18.33 40.96 40.96 40.96h286.72c22.63 0 40.96-18.33 40.96-40.96v-286.72c0-22.63-18.33-40.96-40.96-40.96h-327.68v327.68z" />
<glyph unicode="&#xe629;" glyph-name="money" d="M962.56 609.28h-901.12c-22.63 0-40.96-18.33-40.96-40.96v-614.4c0-22.63 18.33-40.96 40.96-40.96h901.12c22.63 0 40.96 18.33 40.96 40.96v614.4c0 22.63-18.33 40.96-40.96 40.96zM962.56-5.12c0-22.63-18.33-40.96-40.96-40.96h-819.2c-22.63 0-40.96 18.33-40.96 40.96v532.48c0 22.63 18.33 40.96 40.96 40.96h819.2c22.63 0 40.96-18.33 40.96-40.96v-532.48zM901.12 691.2h-778.24c-11.264 0-20.48 9.216-20.48 20.48s9.216 20.48 20.48 20.48h778.24c11.264 0 20.48-9.216 20.48-20.48s-9.216-20.48-20.48-20.48zM819.2 814.080h-614.4c-11.264 0-20.48 9.216-20.48 20.48s9.216 20.48 20.48 20.48h614.4c11.264 0 20.48-9.216 20.48-20.48s-9.216-20.48-20.48-20.48zM368.64 281.6h286.72v-51.2h-286.72zM368.64 179.2h286.72v-51.2h-286.72zM481.28 240.64h61.44v-204.8h-61.44zM481.28 281.6l-122.88 204.8h61.44l122.88-204.8zM542.72 281.6l122.88 204.8h-61.44l-122.88-204.8z" />
<glyph unicode="&#xe62a;" glyph-name="import" d="M962.56-25.6c0-22.63-18.33-40.96-40.96-40.96h-819.2c-22.63 0-40.96 18.33-40.96 40.96v819.2c0 22.63 18.33 40.96 40.96 40.96h532.48v40.96h-573.44c-22.63 0-40.96-18.33-40.96-40.96v-901.12c0-22.63 18.33-40.96 40.96-40.96h901.12c22.63 0 40.96 18.33 40.96 40.96v573.44h-40.96v-532.48zM829.44 281.6h-389.12c-16.998 0-30.72 13.722-30.72 30.72s13.722 30.72 30.72 30.72h389.12c16.998 0 30.72-13.722 30.72-30.72s-13.722-30.72-30.72-30.72zM471.040 701.44v-389.12c0-16.998-13.722-30.72-30.72-30.72s-30.72 13.722-30.72 30.72v389.12c0 16.998 13.722 30.72 30.72 30.72s30.72-13.722 30.72-30.72zM910.746 739.328l-448.922-448.922c-11.981-11.981-31.437-11.981-43.418 0s-11.981 31.437 0 43.418l448.922 448.922c11.981 11.981 31.437 11.981 43.418 0s11.981-31.437 0-43.418z" />
<glyph unicode="&#xe62b;" glyph-name="price" d="M20.48-46.080h983.040v-40.96h-983.040zM512 855.040h-368.64c-22.63 0-40.96-18.33-40.96-40.96v-860.16h40.96v819.2c0 22.63 18.33 40.96 40.96 40.96h286.72c22.63 0 40.96-18.33 40.96-40.96v-819.2h40.96v860.16c0 22.63-18.33 40.96-40.96 40.96zM880.64 486.4h-327.68v-40.96h286.72c22.63 0 40.96-18.33 40.96-40.96v-450.56h40.96v491.52c0 22.63-18.33 40.96-40.96 40.96zM225.28 691.2h81.92v-81.92h-81.92zM348.16 691.2h81.92v-81.92h-81.92zM225.28 527.36h81.92v-81.92h-81.92zM348.16 527.36h81.92v-81.92h-81.92z" />
<glyph unicode="&#xe62c;" glyph-name="read" d="M942.080 752.64h-860.16c-22.63 0-40.96-18.33-40.96-40.96v-655.36c0-22.63 18.33-40.96 40.96-40.96h860.16c22.63 0 40.96 18.33 40.96 40.96v655.36c0 22.63-18.33 40.96-40.96 40.96zM921.6 117.76c0-22.63-18.33-40.96-40.96-40.96h-737.28c-22.63 0-40.96 18.33-40.96 40.96v532.48c0 22.63 18.33 40.96 40.96 40.96h737.28c22.63 0 40.96-18.33 40.96-40.96v-532.48zM512 353.28l-411.648 256v-61.44l411.648-256 411.648 256v61.44zM376.832 379.699l-275.456-245.555v-81.92l337.92 317.44v5.12l-56.32 5.12zM642.048 385.536v-10.752h-57.344v-5.12l337.92-317.44v81.92z" />
<glyph unicode="&#xe62d;" glyph-name="set" d="M962.56 506.88h-102.912c-4.403 12.288-9.318 24.371-14.95 36.045l72.806 72.806c15.974 15.974 15.974 41.882 0 57.958l-115.917 115.814c-15.974 15.974-41.882 15.974-57.958 0l-72.806-72.806c-11.674 5.632-23.757 10.547-36.045 14.95v102.912c0 22.63-18.33 40.96-40.96 40.96h-163.738c-22.63 0-40.96-18.33-40.96-40.96v-102.912c-12.288-4.403-24.371-9.318-36.045-14.95l-72.806 72.806c-15.974 15.974-41.882 15.974-57.958 0l-115.814-115.917c-15.974-15.974-15.974-41.882 0-57.958l72.806-72.806c-5.632-11.674-10.547-23.757-14.95-36.045h-102.912c-22.63 0-40.96-18.33-40.96-40.96v-163.84c0-22.63 18.33-40.96 40.96-40.96h102.912c4.403-12.288 9.318-24.371 14.95-36.045l-72.806-72.704c-15.974-15.974-15.974-41.882 0-57.958l115.917-115.814c15.974-15.974 41.882-15.974 57.958 0l72.806 72.806c11.674-5.632 23.757-10.547 36.045-14.95v-102.912c0-22.63 18.33-40.96 40.96-40.96h163.84c22.63 0 40.96 18.33 40.96 40.96v102.912c12.288 4.403 24.371 9.318 36.045 14.95l72.806-72.806c15.974-15.974 41.882-15.974 57.958 0l115.712 115.917c15.974 15.974 15.974 41.882 0 57.958l-72.806 72.806c5.632 11.674 10.547 23.757 14.95 36.045h102.912c22.63 0 40.96 18.33 40.96 40.96v163.738c0 22.63-18.33 40.96-40.96 40.96zM962.56 343.040c0-22.63-18.33-40.96-40.96-40.96h-92.262c-3.584-14.029-8.192-27.75-13.517-40.96-0.717-1.741-1.331-3.379-2.048-5.12-5.632-13.312-12.186-26.112-19.456-38.502l65.229-65.229c15.974-15.974 15.974-41.882 0-57.958l-57.958-57.958c-15.974-15.974-41.882-15.974-57.958 0l-65.229 65.229c-12.288-7.27-25.19-13.824-38.502-19.456-1.638-0.717-3.379-1.434-5.12-2.048-13.21-5.325-26.931-9.933-40.96-13.517v-92.16c0-22.63-18.33-40.96-40.96-40.96h-81.92c-22.63 0-40.96 18.33-40.96 40.96v92.262c-14.029 3.584-27.75 8.192-40.96 13.517-1.741 0.717-3.379 1.331-5.12 2.048-13.312 5.632-26.112 12.186-38.502 19.456l-65.229-65.229c-15.974-15.974-41.882-15.974-57.958 0l-57.958 57.958c-15.974 15.974-15.974 41.882 0 57.958l65.229 65.229c-7.27 12.288-13.824 25.19-19.456 38.502-0.717 1.638-1.434 3.379-2.048 5.12-5.325 13.21-9.933 26.931-13.517 40.96h-92.058c-22.63 0-40.96 18.33-40.96 40.96v81.92c0 22.63 18.33 40.96 40.96 40.96h92.262c3.584 14.029 8.192 27.75 13.517 40.96 0.717 1.741 1.331 3.379 2.048 5.12 5.632 13.312 12.186 26.112 19.456 38.502l-65.229 65.229c-15.974 15.974-15.974 41.882 0 57.958l57.958 57.958c15.974 15.974 41.882 15.974 57.958 0l65.229-65.229c12.288 7.27 25.19 13.824 38.502 19.456 1.638 0.717 3.379 1.434 5.12 2.048 13.21 5.325 26.931 9.933 40.96 13.517v92.058c0 22.63 18.33 40.96 40.96 40.96h81.92c22.63 0 40.96-18.33 40.96-40.96v-92.262c14.029-3.584 27.75-8.192 40.96-13.517 1.741-0.717 3.379-1.331 5.12-2.048 13.312-5.632 26.112-12.186 38.502-19.456l65.229 65.229c15.974 15.974 41.882 15.974 57.958 0l57.958-57.958c15.974-15.974 15.974-41.882 0-57.958l-65.229-65.229c7.27-12.288 13.824-25.19 19.456-38.502 0.717-1.638 1.434-3.379 2.048-5.12 5.325-13.21 9.933-26.931 13.517-40.96h92.058c22.63 0 40.96-18.33 40.96-40.96v-81.818zM512 588.8c-113.152 0-204.8-91.648-204.8-204.8s91.648-204.8 204.8-204.8 204.8 91.648 204.8 204.8-91.648 204.8-204.8 204.8zM512 220.16c-90.522 0-163.84 73.318-163.84 163.84s73.318 163.84 163.84 163.84 163.84-73.318 163.84-163.84-73.318-163.84-163.84-163.84z" />
<glyph unicode="&#xe62e;" glyph-name="statistical" d="M20.48 15.36h983.040v-40.96h-983.040zM143.36 506.88c-22.63 0-40.96-18.33-40.96-40.96v-450.56h40.96v409.6c0 22.63 18.33 40.96 40.96 40.96h163.84v40.96h-204.8zM389.12 670.72c-22.63 0-40.96-18.33-40.96-40.96v-614.4h40.96v573.44c0 22.63 18.33 40.96 40.96 40.96h163.84v40.96h-204.8zM880.64 793.6h-245.76c-22.63 0-40.96-18.33-40.96-40.96v-737.28h40.96v696.32c0 22.63 18.33 40.96 40.96 40.96h163.84c22.63 0 40.96-18.33 40.96-40.96v-696.32h40.96v737.28c0 22.63-18.33 40.96-40.96 40.96z" />
<glyph unicode="&#xe62f;" glyph-name="build" d="M512 875.52c-271.462 0-491.52-220.058-491.52-491.52s220.058-491.52 491.52-491.52 491.52 220.058 491.52 491.52-220.058 491.52-491.52 491.52zM512-66.56c-248.832 0-450.56 201.728-450.56 450.56s201.728 450.56 450.56 450.56 450.56-201.728 450.56-450.56-201.728-450.56-450.56-450.56zM491.52 629.76h40.96v-491.52h-40.96zM266.24 404.48h491.52v-40.96h-491.52z" />
<glyph unicode="&#xe630;" glyph-name="bound" d="M577.434 202.547c-66.56 0-129.024 25.805-175.821 72.499-28.058 28.058-49.152 62.874-61.030 100.659-5.12 16.179 3.891 33.382 20.070 38.4 16.179 5.12 33.382-3.891 38.4-20.070 9.114-28.877 24.576-54.272 45.875-75.571 73.011-73.011 191.795-73.011 264.909 0l176.23 176.128c73.011 73.011 73.011 191.795 0 264.909-35.226 35.226-82.227 54.682-132.403 54.682s-97.28-19.354-132.403-54.579l-124.621-124.518c-11.981-11.981-31.437-11.981-43.418 0s-11.981 31.437 0 43.418l124.621 124.518c46.694 46.797 109.158 72.499 175.821 72.499 66.56 0 129.024-25.805 175.821-72.499 46.797-46.797 72.499-109.261 72.499-175.821s-25.805-129.024-72.499-175.821l-176.23-176.128c-46.797-46.899-109.261-72.704-175.821-72.704zM269.107-105.677c-66.56 0-129.024 25.805-175.821 72.499-46.797 46.899-72.499 109.261-72.499 175.821s25.805 129.024 72.499 175.821l176.128 176.128c46.797 46.797 109.261 72.499 175.821 72.499s129.024-25.805 175.821-72.499c28.058-28.058 49.152-62.874 61.030-100.659 5.12-16.179-3.891-33.382-20.070-38.4-16.179-5.12-33.382 3.891-38.4 20.070-9.114 28.877-24.576 54.272-45.875 75.571-35.123 35.226-82.125 54.682-132.403 54.682-50.176 0-97.28-19.354-132.403-54.579l-176.23-176.026c-35.123-35.123-54.579-82.227-54.579-132.403s19.354-97.28 54.579-132.403c73.011-73.011 191.795-73.011 264.909 0l124.518 124.518c11.981 11.981 31.437 11.981 43.418 0s11.981-31.437 0-43.418l-124.518-124.621c-46.797-46.797-109.261-72.602-175.923-72.602zM269.107-105.677" />
<glyph unicode="&#xe631;" glyph-name="vcode" d="M848.896 752.538h-24.576c-202.547 0-288.563 98.099-294.707 98.099l-18.432 24.576-18.432-24.576s-92.058-98.099-294.707-98.099h-55.296v-441.549c0-116.531 36.864-282.112 356.045-416.973h12.288l12.288 6.144c319.386 128.717 356.25 300.442 356.25 416.973v435.405h-30.72zM480.563 200.602l-184.115 184.013 49.152 42.906 98.202-79.77c73.626 85.811 165.786 159.437 263.987 220.774l18.432-24.576c-104.448-97.997-184.218-214.528-245.658-343.347zM480.563 200.602" />
<glyph unicode="&#xe632;" glyph-name="card" d="M635.085 331.878c87.245 49.254 146.33 144.589 146.33 254.157 0 159.949-126.054 289.69-281.498 289.69s-281.498-129.741-281.498-289.69c0-160.051 126.054-289.69 281.498-289.69 3.379 0 6.758 0.102 10.035 0.205 0.717-0.102 1.434-0.205 2.15-0.205 227.226 0 423.014-165.99 439.398-352.666h-878.797c9.626 123.802 89.395 235.213 213.197 299.008 12.083 6.246 16.998 21.402 10.957 33.792s-20.787 17.51-32.87 11.264c-147.968-76.288-241.254-215.347-241.254-369.357v-25.19h978.944v25.19c0 189.952-159.642 362.906-366.592 413.491zM500.019 346.726c-128.41 0-232.55 107.11-232.55 239.309s104.141 239.309 232.55 239.309c128.41 0 232.55-107.11 232.55-239.309-0.102-132.198-104.141-239.309-232.55-239.309zM500.019 346.726" />
<glyph unicode="&#xe633;" glyph-name="del" d="M512 875.52c-271.462 0-491.52-220.058-491.52-491.52s220.058-491.52 491.52-491.52 491.52 220.058 491.52 491.52-220.058 491.52-491.52 491.52zM512-66.56c-248.832 0-450.56 201.728-450.56 450.56s201.728 450.56 450.56 450.56 450.56-201.728 450.56-450.56-201.728-450.56-450.56-450.56zM323.735 224.705l347.554 347.554 28.963-28.963-347.554-347.554zM323.735 543.295l28.963 28.963 347.555-347.554-28.963-28.963z" />
<glyph unicode="&#xe634;" glyph-name="drop" d="M20.48 629.76h163.84v-81.92h-163.84zM102.4 547.84h163.84v-81.92h-163.84zM184.32 465.92h163.84v-81.92h-163.84zM266.24 384h163.84v-81.92h-163.84zM348.16 302.080h163.84v-81.92h-163.84zM430.080 220.16h163.84v-81.92h-163.84zM512 302.080h163.84v-81.92h-163.84zM593.92 384h163.84v-81.92h-163.84zM839.68 629.76h163.84v-81.92h-163.84zM757.76 547.84h163.84v-81.92h-163.84zM675.84 465.92h163.84v-81.92h-163.84z" />
<glyph unicode="&#xe635;" glyph-name="bounded" d="M512 875.52c-271.462 0-491.52-220.058-491.52-491.52s220.058-491.52 491.52-491.52 491.52 220.058 491.52 491.52-220.058 491.52-491.52 491.52zM512-66.56c-248.832 0-450.56 201.728-450.56 450.56s201.728 450.56 450.56 450.56 450.56-201.728 450.56-450.56-201.728-450.56-450.56-450.56zM737.997 592.179c-14.336 9.011-33.382 4.71-42.394-9.728l-212.070-338.33-164.864 103.322c-14.336 9.011-33.382 4.71-42.394-9.728-9.011-14.336-4.71-33.382 9.728-42.394l190.874-119.706c14.336-9.011 33.382-4.71 42.394 9.728l228.454 364.544c9.011 14.336 4.608 33.28-9.728 42.291z" />
<glyph unicode="&#xe900;" glyph-name="parking" d="M511.898-107.52c-66.355 0-130.662 13.005-191.283 38.707-58.573 24.781-111.104 60.211-156.262 105.37-45.056 45.056-80.589 97.69-105.37 156.16-25.6 60.621-38.707 125.030-38.707 191.283 0 66.355 13.005 130.662 38.707 191.283 24.781 58.573 60.211 111.104 105.37 156.16 45.056 45.056 97.69 80.589 156.262 105.37 60.621 25.6 124.928 38.707 191.283 38.707s130.662-13.005 191.283-38.707c58.573-24.781 111.104-60.211 156.262-105.37 45.056-45.056 80.589-97.69 105.37-156.16 25.6-60.621 38.707-125.030 38.707-191.283 0-66.355-13.005-130.662-38.707-191.283-24.781-58.573-60.211-111.104-105.37-156.16-45.056-45.056-97.69-80.589-156.262-105.37-60.518-25.702-124.928-38.707-191.283-38.707zM511.898 794.010c-226.202 0-410.112-183.808-410.112-410.010s183.91-410.010 410.112-410.010 410.112 183.808 410.112 410.010-183.91 410.010-410.112 410.010zM453.939 131.482l-111.923 1.331 0.614 488.346h181.965c20.070 1.434 112.538 4.915 173.158-49.562 32.358-28.979 49.869-69.222 50.586-116.224 1.126-63.078-24.166-102.195-45.568-123.802-56.422-57.242-142.336-57.242-174.694-57.242h-74.342v-142.848zM453.939 385.434h74.445c17.715 0 71.68 0 95.232 23.962 3.482 3.584 14.029 14.336 13.619 44.032-0.307 20.685-7.475 29.696-13.619 35.328-22.63 20.173-72.397 23.142-91.546 21.402l-2.56-0.205h-75.469v-124.518h-0.102z" />
</font>
</defs>
</svg>
